<?xml version="1.0" encoding="UTF-8"?>
<svg version="1.1" xmlns="http://www.w3.org/2000/svg" width="577" height="433">
<path d="M0 0 C-0.74847189 6.85600249 -2.55600741 13.40499584 -4.3125 20.0625 C-4.63081787 21.28042236 -4.94913574 22.49834473 -5.27709961 23.75317383 C-7.08518721 30.63829393 -8.97658149 37.4861352 -10.98046875 44.31640625 C-12.38564906 49.39336039 -13.62074168 54.50899882 -14.875 59.625 C-16.96575721 68.14196588 -19.30038498 76.5351557 -21.89013672 84.91259766 C-23.67672403 90.75160193 -25.13223083 96.61064942 -26.46142578 102.56811523 C-27.72876109 108.12684287 -29.32033013 113.55302602 -31 119 C-32.88245709 125.1092489 -34.60020404 131.19948805 -36 137.4375 C-37.39087955 143.63363236 -39.02615073 149.71878136 -40.8125 155.8125 C-43.26237496 164.17926045 -45.42569757 172.59519064 -47.5 181.0625 C-49.73239042 190.16529617 -52.16099728 199.15318389 -54.93701172 208.10424805 C-56.75560494 214.02112277 -58.24118527 219.9683866 -59.60668945 226.00415039 C-60.8334937 231.40119964 -62.30924473 236.69608636 -63.8671875 242.0078125 C-65.34961523 247.14384612 -66.66310178 252.3246149 -68 257.5 C-69.88047791 264.7715694 -71.83704854 272.0072 -73.9375 279.21875 C-75.62457836 285.22276415 -77.17059865 291.26353168 -78.71875 297.3046875 C-80.05257845 302.48052182 -81.4541522 307.62936865 -82.93359375 312.765625 C-85.2692605 320.87770772 -87.42522153 329.03442025 -89.57543945 337.19726562 C-90.08146319 339.11625034 -90.58954657 341.03469155 -91.09765625 342.953125 C-91.39164307 344.06848633 -91.68562988 345.18384766 -91.98852539 346.33300781 C-93.25098909 350.90993391 -94.63571572 355.45238573 -96 360 C-118.11 360 -140.22 360 -163 360 C-163 355.32269833 -162.77243088 352.36250949 -161.625 348 C-161.36976563 347.01 -161.11453125 346.02 -160.8515625 345 C-160.31501754 343.10978657 -159.73698693 341.2304009 -159.1015625 339.37109375 C-157.45179282 334.32233052 -156.11987566 329.19323868 -154.75 324.0625 C-154.44280029 322.91749023 -154.13560059 321.77248047 -153.8190918 320.59277344 C-151.52593845 312.02489581 -149.28580008 303.44378102 -147.06396484 294.85717773 C-145.73858832 289.75631023 -144.3555176 284.68295506 -142.875 279.625 C-141.40651135 274.59451616 -140.16645293 269.54383385 -139 264.4375 C-137.87917077 259.53522709 -136.66686473 254.72874907 -135.125 249.9375 C-133.12499032 243.69337528 -131.56129519 237.36670125 -130 231 C-128.18728179 223.60803762 -126.25101612 216.34281245 -123.921875 209.09765625 C-122.83092871 205.43189182 -121.96917856 201.72816993 -121.125 198 C-119.45977324 190.66352941 -117.45972178 183.45791223 -115.35644531 176.23608398 C-113.13330809 168.56598163 -111.10943004 160.85202498 -109.11645508 153.11938477 C-107.49749817 146.85523804 -105.79549108 140.62953384 -103.95703125 134.42578125 C-102.52830662 129.31153024 -101.27115875 124.15534221 -100 119 C-100.74983154 119.50337891 -101.49966309 120.00675781 -102.2722168 120.52539062 C-105.12067629 122.43589201 -107.97062648 124.34413077 -110.8215332 126.25097656 C-112.04281746 127.06846842 -113.26354325 127.88679538 -114.48364258 128.70605469 C-121.9036519 133.68740528 -129.38261943 138.51607372 -137.0144043 143.16845703 C-141.2476199 145.76536467 -145.4082349 148.46670283 -149.5625 151.1875 C-151.28640735 152.31257812 -153.01036725 153.43757573 -154.734375 154.5625 C-155.60255859 155.1296875 -156.47074219 155.696875 -157.36523438 156.28125 C-159.97496904 157.98367143 -162.58830945 159.68039459 -165.203125 161.375 C-166.05132812 161.92494629 -166.89953125 162.47489258 -167.7734375 163.04150391 C-169.45281761 164.13019436 -171.13250033 165.21841819 -172.8125 166.30615234 C-176.72845393 168.84793693 -180.62557165 171.41117291 -184.484375 174.0390625 C-185.17619873 174.50868408 -185.86802246 174.97830566 -186.58081055 175.4621582 C-187.86515598 176.33732324 -189.14554869 177.21832885 -190.42114258 178.10620117 C-194.66922711 181 -194.66922711 181 -198 181 C-197.3691616 176.93114909 -196.54691952 172.98452239 -195.51171875 169 C-195.21958496 167.87263428 -194.92745117 166.74526855 -194.62646484 165.58374023 C-194.31660645 164.40110596 -194.00674805 163.21847168 -193.6875 162 C-193.36990723 160.7819165 -193.05231445 159.56383301 -192.72509766 158.30883789 C-188.97784673 144.00054327 -188.97784673 144.00054327 -186.91015625 137.3203125 C-186.19133297 134.69799582 -185.68352755 132.22670247 -185.24609375 129.5546875 C-184.0535304 123.05908048 -182.96177681 117.17077992 -177.6015625 112.8671875 C-174.02700056 110.41834516 -170.24899933 108.36550753 -166.42529297 106.33496094 C-162.29797831 104.06315134 -158.42111374 101.41883411 -154.5 98.8125 C-152.8140433 97.71247477 -151.12649619 96.61488387 -149.4375 95.51953125 C-148.12458984 94.6680249 -148.12458984 94.6680249 -146.78515625 93.79931641 C-141.70150133 90.51508282 -136.60022253 87.25842153 -131.5 84 C-121.44158862 77.57338894 -111.4181749 71.09563647 -101.41943359 64.57666016 C-97.28215683 61.88054176 -93.14085913 59.19061174 -89 56.5 C-83.92888942 53.20435037 -78.85822377 49.90802234 -73.7890625 46.609375 C-65.36555685 41.12898372 -56.93439056 35.6616464 -48.4765625 30.234375 C-43.10359844 26.78452949 -37.74612685 23.31069274 -32.38671875 19.83984375 C-29.41160104 17.9131199 -26.43492165 15.98884183 -23.45703125 14.06640625 C-22.71501465 13.5871167 -21.97299805 13.10782715 -21.20849609 12.61401367 C-19.75466574 11.67495434 -18.30057104 10.7363041 -16.84619141 9.7980957 C-12.37311415 6.9070119 -7.9409037 3.96481568 -3.56640625 0.92578125 C-2 0 -2 0 0 0 Z " fill="#3596FE" transform="translate(437,49)"/>
<path d="M0 0 C-0.66056031 5.15641466 -1.65219752 10.13701991 -2.875 15.1875 C-3.05281006 15.93 -3.23062012 16.6725 -3.41381836 17.4375 C-3.77242121 18.93057722 -4.13265862 20.42326292 -4.49462891 21.91552734 C-4.94221015 23.76163779 -5.38366955 25.60923009 -5.82421875 27.45703125 C-6.90640969 31.91749018 -8.05186204 36.28946904 -9.5625 40.625 C-10.91577088 44.51565378 -11.75618406 48.39212695 -12.47265625 52.4453125 C-13.1418942 55.68739858 -14.07014454 58.82299386 -15 62 C-18.21839747 73.43917304 -21.33221614 84.90526615 -24.40625 96.3840332 C-25.92310056 102.03868982 -27.46664185 107.68335241 -29.06689453 113.31494141 C-31.18256462 120.76389784 -33.02936402 128.22331585 -34.5690918 135.81445312 C-35.43274056 139.94766367 -36.63778248 143.69051592 -38.18359375 147.63330078 C-40.03505273 153.00053863 -41.15577404 158.60022113 -42.4375 164.125 C-44.4534441 172.76864349 -46.61444625 181.32627672 -49.09643555 189.84863281 C-50.4311 194.50355006 -51.56616662 199.1980266 -52.68554688 203.90820312 C-53.89724026 208.89724026 -53.89724026 208.89724026 -55 210 C-56.7589343 210.09632045 -58.52177159 210.1218751 -60.28334045 210.12025452 C-61.42904007 210.12162918 -62.57473969 210.12300385 -63.75515747 210.12442017 C-65.65731522 210.11902725 -65.65731522 210.11902725 -67.59790039 210.11352539 C-68.93793231 210.11324352 -70.27796439 210.11340125 -71.61799622 210.1139679 C-75.26659438 210.11425587 -78.91515995 210.1083592 -82.56375051 210.10139394 C-86.37277516 210.09516034 -90.1818005 210.0945566 -93.99082947 210.09336853 C-101.20857754 210.09025523 -108.42631054 210.08204186 -115.64405197 210.07201904 C-123.85915257 210.06085786 -132.07425388 210.05534744 -140.28936017 210.05032361 C-157.19291551 210.03985925 -174.09645616 210.02225983 -191 210 C-190.85250275 208.57248625 -190.70181491 207.14530196 -190.54980469 205.71826172 C-190.46623718 204.92346405 -190.38266968 204.12866638 -190.29656982 203.30978394 C-189.89178445 200.1571815 -189.11140711 197.18228919 -188.25 194.125 C-187.88871078 192.82178413 -187.52806519 191.5183897 -187.16796875 190.21484375 C-186.9776709 189.53276855 -186.78737305 188.85069336 -186.59130859 188.14794922 C-185.54251012 184.33815195 -184.55830002 180.51141881 -183.5625 176.6875 C-181.95532118 170.54479245 -180.2873172 164.42312338 -178.5625 158.3125 C-176.53937422 151.13916124 -174.71916413 143.92428761 -172.9375 136.6875 C-170.88408934 128.36097525 -168.70580747 120.14202067 -166 112 C-165.76925781 110.99582031 -165.53851563 109.99164063 -165.30078125 108.95703125 C-163.57684515 105.03805339 -160.97141454 103.45706225 -157.4375 101.3125 C-156.77782227 100.89315186 -156.11814453 100.47380371 -155.43847656 100.04174805 C-154.02868294 99.14633412 -152.61463326 98.25759206 -151.19677734 97.375 C-148.24913598 95.53002154 -145.33909556 93.62951204 -142.42626953 91.73022461 C-136.99842314 88.19426948 -131.54232017 84.70483726 -126.0625 81.25 C-122.74329647 79.14816902 -119.51031637 76.96938552 -116.3125 74.6875 C-110.71982317 70.72565128 -104.90354764 67.15041995 -99.08203125 63.5390625 C-89.73133873 57.73639798 -80.53353509 51.7101134 -71.38989258 45.58764648 C-66.9627777 42.62798812 -62.49385546 39.74370538 -57.9921875 36.8984375 C-47.99679774 30.55671502 -38.08595457 24.08777693 -28.25415039 17.49560547 C-23.74296448 14.47685561 -19.17344265 11.56114657 -14.578125 8.671875 C-10.96469003 6.32861717 -7.47737338 3.81952782 -3.99609375 1.28515625 C-2 0 -2 0 0 0 Z " fill="#072754" transform="translate(313,199)"/>
<path d="M0 0 C0.33 0 0.66 0 1 0 C1.125 5.75 1.125 5.75 0 8 C44.22 8 88.44 8 134 8 C134 6.02 134 4.04 134 2 C134.99 1.67 135.98 1.34 137 1 C136.125 7.875 136.125 7.875 135 9 C133.2410657 9.09632045 131.47822841 9.1218751 129.71665955 9.12025452 C128.57095993 9.12162918 127.42526031 9.12300385 126.24484253 9.12442017 C124.34268478 9.11902725 124.34268478 9.11902725 122.40209961 9.11352539 C121.06206769 9.11324352 119.72203561 9.11340125 118.38200378 9.1139679 C114.73340562 9.11425587 111.08484005 9.1083592 107.43624949 9.10139394 C103.62722484 9.09516034 99.8181995 9.0945566 96.00917053 9.09336853 C88.79142246 9.09025523 81.57368946 9.08204186 74.35594803 9.07201904 C66.14084743 9.06085786 57.92574612 9.05534744 49.71063983 9.05032361 C32.80708449 9.03985925 15.90354384 9.02225983 -1 9 C-0.67 6.03 -0.34 3.06 0 0 Z " fill="#F0F3F6" transform="translate(123,400)"/>
<path d="M0 0 C1 3 1 3 -2 13 C-24.11 13 -46.22 13 -69 13 C-69 7 -69 7 -67 5 C-67.33 7.31 -67.66 9.62 -68 12 C-46.55 12 -25.1 12 -3 12 C-2.67 8.7 -2.34 5.4 -2 2 C-1.34 1.34 -0.68 0.68 0 0 Z " fill="#F6FAFE" transform="translate(343,396)"/>
<path d="M0 0 C0.66 0.33 1.32 0.66 2 1 C1.67515625 2.19496094 1.67515625 2.19496094 1.34375 3.4140625 C1.0653125 4.47367188 0.786875 5.53328125 0.5 6.625 C0.2215625 7.66914063 -0.056875 8.71328125 -0.34375 9.7890625 C-1.13903737 13.68028998 -1.82186975 17.35626051 0 21 C-0.66 21 -1.32 21 -2 21 C-2 22.98 -2 24.96 -2 27 C-2.99 27 -3.98 27 -5 27 C-5 28.98 -5 30.96 -5 33 C-5.99 33 -6.98 33 -8 33 C-8.33 35.64 -8.66 38.28 -9 41 C-9.33 41 -9.66 41 -10 41 C-9.49506966 33.67851002 -7.71706418 27.09594167 -5.61328125 20.08154297 C-4.44312209 16.10989608 -3.35189336 12.11601363 -2.25 8.125 C-1.81776022 6.56508979 -1.38547296 5.00519273 -0.953125 3.4453125 C-0.63859375 2.30835938 -0.3240625 1.17140625 0 0 Z " fill="#98C9FE" transform="translate(256,165)"/>
<path d="M0 0 C0.33 0 0.66 0 1 0 C1.30681261 7.55668091 1.33120201 13.1987959 -2 20 C-2.25269417 23.29285101 -2.25269417 23.29285101 -2 26 C-2.66 26.33 -3.32 26.66 -4 27 C-5.33966291 29.84678368 -6.17522711 32.64614997 -7 35.6875 C-8 39 -8 39 -10 41 C-9.2844943 34.75241363 -7.74689086 28.8182453 -6.125 22.75 C-5.86847656 21.77675781 -5.61195313 20.80351562 -5.34765625 19.80078125 C-3.60079413 13.19079545 -1.80751348 6.59362825 0 0 Z " fill="#52A5FF" transform="translate(295,325)"/>
<path d="M0 0 C-0.67468618 5.27924546 -1.70024378 10.38810131 -2.9375 15.5625 C-3.19176758 16.65594727 -3.19176758 16.65594727 -3.45117188 17.77148438 C-4.43558232 21.92996348 -5.57815497 25.96400042 -7 30 C-7.33 30 -7.66 30 -8 30 C-8.37264782 25.15557835 -7.27899824 21.66144583 -5.66796875 17.19140625 C-4.8188658 14.40575271 -4.77765501 11.89048491 -5 9 C-7.76264289 8.40267181 -10.16032769 8 -13 8 C-11.2126038 6.66094733 -9.41995047 5.32890934 -7.625 4 C-6.62726563 3.2575 -5.62953125 2.515 -4.6015625 1.75 C-2 0 -2 0 0 0 Z " fill="#8795AC" transform="translate(313,199)"/>
<path d="M0 0 C1.31853194 3.66743983 0.63610485 6.06634249 -0.4375 9.75 C-1.78757514 14.77154644 -2.17814319 18.83384763 -2 24 C-2.28674418 26.00720923 -2.60235737 28.01178687 -3 30 C-3.99 30 -4.98 30 -6 30 C-6.66 32.31 -7.32 34.62 -8 37 C-9.60726997 32.95051462 -8.39248951 29.29758058 -7.375 25.25 C-7.19549805 24.51080322 -7.01599609 23.77160645 -6.83105469 23.01000977 C-4.89557649 15.23430031 -2.49915454 7.61013043 0 0 Z " fill="#9BCBFE" transform="translate(323,222)"/>
<path d="M0 0 C0.33 0 0.66 0 1 0 C1.17151487 5.05968873 1.03461345 8.33235737 -1 13 C-1.3813074 15.32597511 -1.72460254 17.65912158 -2 20 C-1.34 20.33 -0.68 20.66 0 21 C-0.4640625 21.41121094 -0.928125 21.82242187 -1.40625 22.24609375 C-3.16751096 24.18434417 -3.74113822 25.57361405 -4.5 28.0625 C-4.74621094 28.84753906 -4.99242187 29.63257813 -5.24609375 30.44140625 C-5.76930765 32.21708037 -6.28157062 33.99600355 -6.78515625 35.77734375 C-7.04167969 36.67582031 -7.29820312 37.57429688 -7.5625 38.5 C-7.79066406 39.3353125 -8.01882813 40.170625 -8.25390625 41.03125 C-9 43 -9 43 -11 44 C-8.74832287 33.20472523 -6.48980605 22.46941815 -3 12 C-1.95868149 8.00999738 -0.97263237 4.00724535 0 0 Z " fill="#AED5FE" transform="translate(307,280)"/>
<path d="M0 0 C3.125 -0.1875 3.125 -0.1875 6 0 C6 1.98 6 3.96 6 6 C5.34 6 4.68 6 4 6 C4 7.98 4 9.96 4 12 C3.34 12 2.68 12 2 12 C1.67 13.65 1.34 15.3 1 17 C-1.00848616 12.98302769 1.92289724 7.04990639 3 3 C-0.96 5.64 -4.92 8.28 -9 11 C-9.66 10.67 -10.32 10.34 -11 10 C-10.74609375 8.09765625 -10.74609375 8.09765625 -10 6 C-8.22265625 5.05859375 -8.22265625 5.05859375 -6.0625 4.4375 C-2.55706407 3.41322562 -2.16997938 3.25496907 0 0 Z " fill="#83BEFE" transform="translate(334,165)"/>
<path d="M0 0 C0.95657433 3.08776567 0.97421578 5.37770993 0.5 8.5625 C0.03695745 11.68277534 -0.02791572 12.91625283 1 16 C0.01 16.33 -0.98 16.66 -2 17 C-2.92714799 18.98887698 -2.92714799 18.98887698 -3.5 21.4375 C-3.86544922 22.77748047 -3.86544922 22.77748047 -4.23828125 24.14453125 C-4.48964844 25.08683594 -4.74101562 26.02914063 -5 27 C-5.5562057 28.87687678 -6.11838503 30.75199722 -6.6875 32.625 C-6.93886719 33.46289062 -7.19023437 34.30078125 -7.44921875 35.1640625 C-7.63097656 35.76992188 -7.81273437 36.37578125 -8 37 C-8.33 37 -8.66 37 -9 37 C-8.33760385 31.87479342 -7.38293286 26.9012518 -6.1875 21.875 C-6.01444336 21.141604 -5.84138672 20.40820801 -5.66308594 19.65258789 C-4.06231192 13.00649146 -2.12475466 6.49858473 0 0 Z " fill="#A2AFC1" transform="translate(139,341)"/>
<path d="M0 0 C0.66 0.33 1.32 0.66 2 1 C1.01 1.33 0.02 1.66 -1 2 C-1 3.32 -1 4.64 -1 6 C-5.03793188 8.69195459 -9.29814518 9.91495658 -14 11 C-14 11.66 -14 12.32 -14 13 C-16.31 13.66 -18.62 14.32 -21 15 C-17.04607267 10.69651131 -12.77271091 7.68641524 -7.8125 4.625 C-6.72678711 3.93083984 -6.72678711 3.93083984 -5.61914062 3.22265625 C-4.92626953 2.79082031 -4.23339844 2.35898438 -3.51953125 1.9140625 C-2.89151611 1.5217041 -2.26350098 1.1293457 -1.61645508 0.72509766 C-1.0830249 0.48581543 -0.54959473 0.2465332 0 0 Z " fill="#93A2B7" transform="translate(255,236)"/>
<path d="M0 0 C0 0.66 0 1.32 0 2 C-0.99 2 -1.98 2 -3 2 C-3.33 2.99 -3.66 3.98 -4 5 C-6.31487174 6.43522048 -8.5955154 7.7359824 -11 9 C-14.71890527 11.01883429 -18.06178283 12.90713983 -21 16 C-21.66 16 -22.32 16 -23 16 C-23 16.66 -23 17.32 -23 18 C-24.65 18 -26.3 18 -28 18 C-24.53383665 14.12077055 -20.52892041 11.66659401 -16.125 9 C-14.7312499 8.14668361 -13.33801275 7.29252878 -11.9453125 6.4375 C-11.27790039 6.03015625 -10.61048828 5.6228125 -9.92285156 5.203125 C-8.11988394 4.07501118 -6.36766324 2.89487125 -4.6171875 1.6875 C-2 0 -2 0 0 0 Z " fill="#A0CDFE" transform="translate(309,132)"/>
<path d="M0 0 C0.66 0 1.32 0 2 0 C0.39840797 8.76660902 -1.79450269 17.37072413 -4 26 C-4.33 26 -4.66 26 -5 26 C-5 24.02 -5 22.04 -5 20 C-5.66 20 -6.32 20 -7 20 C-6.505 18.515 -6.505 18.515 -6 17 C-5.34 17 -4.68 17 -4 17 C-4 15.35 -4 13.7 -4 12 C-3.34 12 -2.68 12 -2 12 C-1.93941406 11.21753906 -1.87882812 10.43507812 -1.81640625 9.62890625 C-1.73261719 8.61699219 -1.64882813 7.60507813 -1.5625 6.5625 C-1.48128906 5.55316406 -1.40007812 4.54382813 -1.31640625 3.50390625 C-1 1 -1 1 0 0 Z " fill="#B7D9FE" transform="translate(385,236)"/>
<path d="M0 0 C0.33 0 0.66 0 1 0 C0.41664564 7.14055269 -1.10005191 13.68254858 -3.0625 20.5625 C-3.34416016 21.57119141 -3.62582031 22.57988281 -3.91601562 23.61914062 C-4.60447149 26.08124548 -5.29922721 28.54137816 -6 31 C-6.33 31 -6.66 31 -7 31 C-7.21076435 25.73769015 -6.50884582 21.42948965 -5.0625 16.375 C-3.89661253 12.27173525 -2.76463008 8.20144107 -2 4 C-1.34 4 -0.68 4 0 4 C0 2.68 0 1.36 0 0 Z " fill="#B1D6FE" transform="translate(426,85)"/>
<path d="M0 0 C1.5625 1.8125 1.5625 1.8125 3 4 C2.67 4.99 2.34 5.98 2 7 C1.34 7 0.68 7 0 7 C0 10.96 0 14.92 0 19 C-1.32 19 -2.64 19 -4 19 C-4.33 19.99 -4.66 20.98 -5 22 C-4.36684209 16.87475334 -3.31839344 12.03469229 -1.9375 7.0625 C-1.75123047 6.37865234 -1.56496094 5.69480469 -1.37304688 4.99023438 C-0.91910943 3.32579707 -0.46009084 1.66274688 0 0 Z " fill="#A0CDFE" transform="translate(333,184)"/>
<path d="M0 0 C0.98651887 2.95955661 1 4.92864836 1 8 C1.33 8.99 1.66 9.98 2 11 C1.01 11.495 1.01 11.495 0 12 C-0.91031272 14.34386809 -0.91031272 14.34386809 -1.625 17.0625 C-1.88539063 17.98160156 -2.14578125 18.90070313 -2.4140625 19.84765625 C-2.60742188 20.55792969 -2.80078125 21.26820313 -3 22 C-3.66 22 -4.32 22 -5 22 C-5.33 23.32 -5.66 24.64 -6 26 C-5.39547455 20.39554534 -4.41194282 15.07837336 -3 9.625 C-2.82210937 8.91472656 -2.64421875 8.20445312 -2.4609375 7.47265625 C-1.14122828 2.28245656 -1.14122828 2.28245656 0 0 Z " fill="#99A7BA" transform="translate(146,315)"/>
<path d="M0 0 C0.66 0.33 1.32 0.66 2 1 C1.01 1.66 0.02 2.32 -1 3 C-1.2475 3.639375 -1.495 4.27875 -1.75 4.9375 C-4.57337175 9.59606339 -11.98428 10.66929877 -17 12 C-13.84679051 8.55942906 -10.33207412 6.10325842 -6.375 3.6875 C-5.49714844 3.1296582 -5.49714844 3.1296582 -4.6015625 2.56054688 C-3.10691202 1.64010271 -1.55636473 0.81174279 0 0 Z " fill="#ABB6C6" transform="translate(232,251)"/>
<path d="M0 0 C0.66 0 1.32 0 2 0 C1.51989814 5.57170848 0.66428495 10.63730405 -1 16 C-1.54739279 17.97759061 -2.08873551 19.95686276 -2.625 21.9375 C-3.01558594 23.37416016 -3.01558594 23.37416016 -3.4140625 24.83984375 C-3.70410156 25.90912109 -3.70410156 25.90912109 -4 27 C-4.33 27 -4.66 27 -5 27 C-5.64151884 17.80489663 -2.63933559 8.73011001 0 0 Z " fill="#B3BECC" transform="translate(299,245)"/>
<path d="M0 0 C0 0.99 0 1.98 0 3 C-1.423125 3.12375 -1.423125 3.12375 -2.875 3.25 C-6.10461791 3.65074923 -6.10461791 3.65074923 -7.375 6.0625 C-7.58125 6.701875 -7.7875 7.34125 -8 8 C-9.32 8 -10.64 8 -12 8 C-12.33 8.99 -12.66 9.98 -13 11 C-16 13 -16 13 -18.1875 12.625 C-18.785625 12.41875 -19.38375 12.2125 -20 12 C-2 0 -2 0 0 0 Z " fill="#9BCBFE" transform="translate(383,84)"/>
<path d="M0 0 C0.33 0 0.66 0 1 0 C0.39085646 5.58904901 -0.56256679 10.92637994 -1.9375 16.375 C-2.10701172 17.08527344 -2.27652344 17.79554688 -2.45117188 18.52734375 C-3.75580752 23.75580752 -3.75580752 23.75580752 -6 26 C-5.34 20.39 -4.68 14.78 -4 9 C-3.34 9 -2.68 9 -2 9 C-1.34 6.03 -0.68 3.06 0 0 Z " fill="#ACB7C7" transform="translate(269,361)"/>
<path d="M0 0 C0.98651887 2.95955661 1 4.92864836 1 8 C1.33 8.99 1.66 9.98 2 11 C1.05377841 12.37202131 0.04115841 13.69855198 -1 15 C-2.03041427 16.98450156 -3.03685937 18.98199105 -4 21 C-5.00693162 17.87820592 -4.97289724 16.01030331 -4.00390625 12.890625 C-3.77509766 12.13652344 -3.54628906 11.38242187 -3.31054688 10.60546875 C-3.06369141 9.82816406 -2.81683594 9.05085938 -2.5625 8.25 C-2.31951172 7.45722656 -2.07652344 6.66445313 -1.82617188 5.84765625 C-1.22645805 3.89564654 -0.61441879 1.94743117 0 0 Z " fill="#A3CFFE" transform="translate(313,259)"/>
<path d="M0 0 C1.55728336 4.9692604 0.43795308 9.57217564 -0.3125 14.625 C-0.44333984 15.59179688 -0.57417969 16.55859375 -0.70898438 17.5546875 C-0.84240234 18.47765625 -0.97582031 19.400625 -1.11328125 20.3515625 C-1.23485596 21.19541504 -1.35643066 22.03926758 -1.48168945 22.90869141 C-2 25 -2 25 -4 27 C-3.88509088 24.31173136 -3.75836801 21.62486531 -3.625 18.9375 C-3.5940625 18.18533203 -3.563125 17.43316406 -3.53125 16.65820312 C-3.22461285 10.75543798 -1.87006735 5.61020205 0 0 Z " fill="#516384" transform="translate(264,372)"/>
<path d="M0 0 C0.33 0 0.66 0 1 0 C1.86589563 9.94176463 0.15965495 16.47735567 -5 25 C-6.0804275 21.7587175 -5.95594411 21.0476216 -5.0390625 17.91015625 C-4.81476563 17.12576172 -4.59046875 16.34136719 -4.359375 15.53320312 C-4.11703125 14.71787109 -3.8746875 13.90253906 -3.625 13.0625 C-3.15859264 11.44929434 -2.69243819 9.83601553 -2.2265625 8.22265625 C-2.01596191 7.50859619 -1.80536133 6.79453613 -1.58837891 6.05883789 C-1.01388169 4.04857441 -0.49527431 2.03108168 0 0 Z " fill="#B3D7FE" transform="translate(295,325)"/>
<path d="M0 0 C1.51561381 3.03122763 0.39877205 5.07846675 -0.43359375 8.3203125 C-0.75263672 9.57714844 -1.07167969 10.83398438 -1.40039062 12.12890625 C-1.74594249 13.46097675 -2.09164761 14.7930075 -2.4375 16.125 C-2.77994153 17.46467913 -3.12174652 18.80452115 -3.46289062 20.14453125 C-4.30232932 23.43134754 -5.14829594 26.71634453 -6 30 C-6.33 30 -6.66 30 -7 30 C-6.67 25.71 -6.34 21.42 -6 17 C-5.34 17 -4.68 17 -4 17 C-3.96261719 16.27554687 -3.92523438 15.55109375 -3.88671875 14.8046875 C-3.50139002 9.13808848 -3.015464 4.85096382 0 0 Z " fill="#C5E0FE" transform="translate(374,281)"/>
<path d="M0 0 C-0.33 1.32 -0.66 2.64 -1 4 C-2.65 4 -4.3 4 -6 4 C-6.66 5.65 -7.32 7.3 -8 9 C-8.99 8.67 -9.98 8.34 -11 8 C-11 8.66 -11 9.32 -11 10 C-12.98 10.33 -14.96 10.66 -17 11 C-14.06072511 7.85177192 -11.0143222 5.54542155 -7.375 3.25 C-6.41335938 2.63640625 -5.45171875 2.0228125 -4.4609375 1.390625 C-2 0 -2 0 0 0 Z " fill="#90C5FE" transform="translate(363,97)"/>
<path d="M0 0 C0 0.99 0 1.98 0 3 C-1.423125 3.12375 -1.423125 3.12375 -2.875 3.25 C-4.421875 3.62125 -4.421875 3.62125 -6 4 C-7.10836423 5.88316159 -7.10836423 5.88316159 -8 8 C-10.375 9.8125 -10.375 9.8125 -13 11 C-15.1640625 10.57421875 -15.1640625 10.57421875 -17 10 C-14.545324 8.32771465 -12.08660326 6.6620314 -9.625 5 C-8.92632812 4.52304688 -8.22765625 4.04609375 -7.5078125 3.5546875 C-6.8375 3.10351562 -6.1671875 2.65234375 -5.4765625 2.1875 C-4.85861816 1.76855469 -4.24067383 1.34960938 -3.60400391 0.91796875 C-2 0 -2 0 0 0 Z " fill="#98C9FE" transform="translate(332,117)"/>
<path d="M0 0 C0.66 0 1.32 0 2 0 C1.54851905 2.251385 1.08855496 4.50106998 0.625 6.75 C0.36976563 8.00296875 0.11453125 9.2559375 -0.1484375 10.546875 C-0.8430125 13.36340848 -1.55680083 15.51518752 -3 18 C-3.144375 17.236875 -3.28875 16.47375 -3.4375 15.6875 C-3.9632594 12.91827092 -3.9632594 12.91827092 -5 10 C-3.70672372 7.97386717 -2.3703055 5.97485205 -1 4 C-0.23060319 1.77397385 -0.23060319 1.77397385 0 0 Z " fill="#97C8FE" transform="translate(396,195)"/>
<path d="M0 0 C-0.64187918 5.13503344 -1.68272247 9.9943454 -3 15 C-3.33 15 -3.66 15 -4 15 C-3.90234375 11.97265625 -3.90234375 11.97265625 -3.8046875 8.9453125 C-3.81668311 6.76136355 -3.81668311 6.76136355 -6 5 C-6.66 4.67 -7.32 4.34 -8 4 C-2.25 0 -2.25 0 0 0 Z " fill="#ABD3FE" transform="translate(437,49)"/>
<path d="M0 0 C0.33 0 0.66 0 1 0 C0.33828543 5.2050332 -0.66870105 10.22315401 -1.9375 15.3125 C-2.19176758 16.38467773 -2.19176758 16.38467773 -2.45117188 17.47851562 C-3.76045583 22.76045583 -3.76045583 22.76045583 -6 25 C-5.09114866 16.03107234 -3.97305468 8.1968361 0 0 Z " fill="#C8E2FE" transform="translate(418,116)"/>
<path d="M0 0 C0 0.99 0 1.98 0 3 C-1.32 3 -2.64 3 -4 3 C-4.2165625 4.175625 -4.2165625 4.175625 -4.4375 5.375 C-6 8 -6 8 -8.13671875 8.77734375 C-10.41974691 9.26835609 -12.68695927 9.68112401 -15 10 C-11.63672231 6.19803392 -5.34781299 0 0 0 Z " fill="#5C7090" transform="translate(272,226)"/>
<path d="M0 0 C1 2 1 2 0.5625 4.0625 C0.04187898 6.78129868 0.08185465 8.76877413 0.25 11.5 C0.32790704 15.38885957 0.14090258 15.82739434 -2.5 19.0625 C-3.325 19.701875 -4.15 20.34125 -5 21 C-4.52574038 18.62870192 -4.05107972 16.25749564 -3.57421875 13.88671875 C-3.19379257 11.97423611 -2.82128882 10.06015917 -2.45703125 8.14453125 C-2.28558594 7.25121094 -2.11414063 6.35789062 -1.9375 5.4375 C-1.78152344 4.61121094 -1.62554687 3.78492188 -1.46484375 2.93359375 C-1 1 -1 1 0 0 Z " fill="#A5B1C2" transform="translate(129,379)"/>
<path d="M0 0 C0 0.66 0 1.32 0 2 C-0.99 2 -1.98 2 -3 2 C-3.33 2.99 -3.66 3.98 -4 5 C-6.14515959 6.91532107 -7.907447 7.96694536 -10.625 8.9375 C-13.15211014 9.80105398 -13.15211014 9.80105398 -14.3125 12.125 C-14.539375 12.74375 -14.76625 13.3625 -15 14 C-15.3359375 11.765625 -15.3359375 11.765625 -15 9 C-12.6640625 6.796875 -12.6640625 6.796875 -9.625 4.75 C-8.12839844 3.72132813 -8.12839844 3.72132813 -6.6015625 2.671875 C-2.44392523 0 -2.44392523 0 0 0 Z " fill="#9BA8BB" transform="translate(163,297)"/>
<path d="M0 0 C0.66 0.33 1.32 0.66 2 1 C1.21625 1.763125 0.4325 2.52625 -0.375 3.3125 C-3.07257717 5.90891805 -3.07257717 5.90891805 -5 9 C-6.9453125 9.51171875 -6.9453125 9.51171875 -9.125 9.6875 C-11.043125 9.8421875 -11.043125 9.8421875 -13 10 C-10.53511103 7.33857503 -7.79550348 5.36573616 -4.8125 3.3125 C-3.91144531 2.68988281 -3.01039063 2.06726563 -2.08203125 1.42578125 C-1.39496094 0.95527344 -0.70789063 0.48476562 0 0 Z " fill="#8191AA" transform="translate(285,216)"/>
<path d="M0 0 C0.66 0.33 1.32 0.66 2 1 C0.515 2.485 0.515 2.485 -1 4 C-0.67 4.66 -0.34 5.32 0 6 C-2.64 6.33 -5.28 6.66 -8 7 C-8.33 7.99 -8.66 8.98 -9 10 C-10.32 9.67 -11.64 9.34 -13 9 C-11.39612733 7.8745809 -9.79189084 6.74968028 -8.1875 5.625 C-7.29417969 4.99851562 -6.40085938 4.37203125 -5.48046875 3.7265625 C-3.66732122 2.46449761 -1.83811789 1.22541192 0 0 Z " fill="#8695AD" transform="translate(196,274)"/>
<path d="M0 0 C0.33 0 0.66 0 1 0 C1 3.3 1 6.6 1 10 C1.99 10.33 2.98 10.66 4 11 C0.375 14 0.375 14 -3 14 C-2.28547412 9.23649415 -1.20465156 4.65798604 0 0 Z " fill="#C5E0FE" transform="translate(242,216)"/>
<path d="M0 0 C0.33 0 0.66 0 1 0 C1.48990279 5.06232884 -0.2893678 9.32630846 -2 14 C-4.78637633 9.8204355 -3.79562512 7.85331323 -3 3 C-2.01 2.67 -1.02 2.34 0 2 C0 1.34 0 0.68 0 0 Z " fill="#19325D" transform="translate(293,267)"/>
<path d="M0 0 C0.66 0.33 1.32 0.66 2 1 C1.01 1.33 0.02 1.66 -1 2 C-1 3.32 -1 4.64 -1 6 C-4.22791555 8.1519437 -5.28400809 8.20086443 -9 8 C-6.37347975 4.40069448 -4.06036357 1.92333011 0 0 Z " fill="#546788" transform="translate(255,236)"/>
<path d="M0 0 C0.99 0 1.98 0 3 0 C3 1.98 3 3.96 3 6 C2.34 6 1.68 6 1 6 C1 7.98 1 9.96 1 12 C0.34 12 -0.32 12 -1 12 C-1.33 13.65 -1.66 15.3 -2 17 C-3.45047396 14.09905209 -2.45356803 12.44027404 -1.5625 9.375 C-1.13130859 7.87066406 -1.13130859 7.87066406 -0.69140625 6.3359375 C-0.46324219 5.56507813 -0.23507812 4.79421875 0 4 C0.66 4 1.32 4 2 4 C2 3.01 2 2.02 2 1 C1.34 0.67 0.68 0.34 0 0 Z " fill="#A2CEFE" transform="translate(337,165)"/>
<path d="M0 0 C1.28961193 2.57922387 0.79211692 3.40291211 0.00390625 6.1328125 C-0.22490234 6.93847656 -0.45371094 7.74414062 -0.68945312 8.57421875 C-0.93630859 9.41597656 -1.18316406 10.25773437 -1.4375 11.125 C-1.68048828 11.97449219 -1.92347656 12.82398437 -2.17382812 13.69921875 C-2.7761431 15.80141612 -3.38510525 17.90145431 -4 20 C-5.72019506 14.83941482 -4.15698558 8.95424474 -2.1953125 3.9453125 C-1.51968903 2.60050008 -0.7691621 1.29359081 0 0 Z " fill="#C6E1FE" transform="translate(432,65)"/>
<path d="M0 0 C0.66 0.33 1.32 0.66 2 1 C1.01 1.33 0.02 1.66 -1 2 C-2.21869929 4.50447516 -2.21869929 4.50447516 -3 7 C-4.32 7 -5.64 7 -7 7 C-8.34164079 7.2981424 -9.67851173 7.62243192 -11 8 C-8.83385197 5.69125289 -6.60793392 3.94709819 -3.9375 2.25 C-2.89916016 1.57710937 -2.89916016 1.57710937 -1.83984375 0.890625 C-1.23269531 0.59671875 -0.62554687 0.3028125 0 0 Z " fill="#8B9AB0" transform="translate(298,208)"/>
<path d="M0 0 C1.7093832 3.41876639 -0.04366223 7.06121965 -0.9375 10.625 C-1.13279297 11.42679687 -1.32808594 12.22859375 -1.52929688 13.0546875 C-2.01331602 15.03798547 -2.50586022 17.01919934 -3 19 C-3.33 19 -3.66 19 -4 19 C-3.40546697 5.18223235 -3.40546697 5.18223235 0 0 Z " fill="#BCDCFE" transform="translate(379,262)"/>
<path d="M0 0 C-1.74552064 1.15264553 -3.49660196 2.29687327 -5.25 3.4375 C-6.22453125 4.07558594 -7.1990625 4.71367187 -8.203125 5.37109375 C-10.58381615 6.7576136 -12.31780307 7.546581 -15 8 C-5.87234043 -1.95744681 -5.87234043 -1.95744681 0 0 Z " fill="#2A90FF" transform="translate(301,141)"/>
<path d="M0 0 C0.33 0 0.66 0 1 0 C1.33266291 6.20970773 0.45029331 10.28264895 -2 16 C-2.33 16 -2.66 16 -3 16 C-2.57910004 10.39538469 -2.08386889 5.27913453 0 0 Z " fill="#BBDBFE" transform="translate(327,206)"/>
<path d="M0 0 C-3.02272532 3.25524265 -6.25718301 5.61820737 -10 8 C-10.66 7.67 -11.32 7.34 -12 7 C-11.34 6.566875 -10.68 6.13375 -10 5.6875 C-9.01 4.8521875 -9.01 4.8521875 -8 4 C-8 3.01 -8 2.02 -8 1 C-5.29120665 -0.35439668 -2.99066732 -0.06501451 0 0 Z " fill="#A5D0FE" transform="translate(269,211)"/>
<path d="M0 0 C-1.44626119 3.81287042 -3.30194812 5.32707177 -7 7 C-9.1640625 6.57421875 -9.1640625 6.57421875 -11 6 C-9.54550599 4.9944239 -8.08627557 3.99569565 -6.625 3 C-5.40683594 2.1646875 -5.40683594 2.1646875 -4.1640625 1.3125 C-2 0 -2 0 0 0 Z " fill="#93C7FE" transform="translate(425,57)"/>
<path d="M0 0 C2.96271413 4.4440712 1.40209176 7.90018745 0.4375 12.9375 C0.2209375 13.9584375 0.2209375 13.9584375 0 15 C-0.33 15 -0.66 15 -1 15 C-1.02685412 12.68756208 -1.04632841 10.3750373 -1.0625 8.0625 C-1.07410156 6.77472656 -1.08570313 5.48695313 -1.09765625 4.16015625 C-1 1 -1 1 0 0 Z " fill="#89C1FE" transform="translate(354,347)"/>
<path d="M0 0 C0.33 0 0.66 0 1 0 C1.33 2.64 1.66 5.28 2 8 C0.68 8 -0.64 8 -2 8 C-2.33 8.99 -2.66 9.98 -3 11 C-2.53199289 6.94393835 -2.12046792 3.53411321 0 0 Z " fill="#7EBCFE" transform="translate(331,195)"/>
<path d="M0 0 C0.66 0.33 1.32 0.66 2 1 C1.01 1.66 0.02 2.32 -1 3 C-1.268125 3.680625 -1.53625 4.36125 -1.8125 5.0625 C-2.204375 5.701875 -2.59625 6.34125 -3 7 C-6.125 7.75 -6.125 7.75 -9 8 C-6.37347975 4.40069448 -4.06036357 1.92333011 0 0 Z " fill="#5C6E8D" transform="translate(232,251)"/>
<path d="M0 0 C0.66 0.33 1.32 0.66 2 1 C1.34 5.29 0.68 9.58 0 14 C-0.33 14 -0.66 14 -1 14 C-1 12.02 -1 10.04 -1 8 C-1.66 8 -2.32 8 -3 8 C-2.67 7.01 -2.34 6.02 -2 5 C-1.34 5 -0.68 5 0 5 C0 3.35 0 1.7 0 0 Z " fill="#7BBAFE" transform="translate(381,248)"/>
<path d="M0 0 C0.66 0.33 1.32 0.66 2 1 C-1.3 3.31 -4.6 5.62 -8 8 C-8.66 7.67 -9.32 7.34 -10 7 C-9.3125 5.0625 -9.3125 5.0625 -8 3 C-5.5625 2.375 -5.5625 2.375 -3 2 C-2.01 1.34 -1.02 0.68 0 0 Z " fill="#ADD4FE" transform="translate(287,198)"/>
<path d="M0 0 C1.15957207 3.47871621 0.77456651 4.34219645 -0.4375 7.6875 C-0.72496094 8.49574219 -1.01242187 9.30398438 -1.30859375 10.13671875 C-1.65083984 11.05904297 -1.65083984 11.05904297 -2 12 C-3.30674498 7.83129946 -2.3976763 5.11538022 -1 1 C-0.67 0.67 -0.34 0.34 0 0 Z " fill="#AAD2FE" transform="translate(343,396)"/>
<path d="M0 0 C0.33 0 0.66 0 1 0 C0.88541307 1.43836751 0.75790884 2.87570966 0.625 4.3125 C0.55539062 5.11300781 0.48578125 5.91351563 0.4140625 6.73828125 C0 9 0 9 -2 12 C-2 8.7 -2 5.4 -2 2 C-1.34 2 -0.68 2 0 2 C0 1.34 0 0.68 0 0 Z " fill="#92A0B5" transform="translate(272,349)"/>
<path d="M0 0 C0.33 0 0.66 0 1 0 C1.33266291 6.20970773 0.45029331 10.28264895 -2 16 C-3.3805087 12.23331402 -2.59568159 9.55210827 -1.5625 5.75 C-1.27503906 4.67234375 -0.98757813 3.5946875 -0.69140625 2.484375 C-0.46324219 1.66453125 -0.23507812 0.8446875 0 0 Z " fill="#CEE5FE" transform="translate(307,280)"/>
<path d="M0 0 C0.33 0 0.66 0 1 0 C1.21192221 5.19209404 0.5912689 9.126739 -1 14 C-1.66 14 -2.32 14 -3 14 C-2.48594831 9.03083364 -1.76615118 4.70973649 0 0 Z " fill="#CDE5FE" transform="translate(279,385)"/>
<path d="M0 0 C1.2997518 3.89925539 0.96697405 7.03292699 0 11 C-1.5625 13 -1.5625 13 -3 14 C-2.40380045 9.13103697 -1.43023178 4.67209049 0 0 Z " fill="#D2E7FE" transform="translate(288,352)"/>
<path d="M0 0 C1.0326802 2.78823655 1.04509293 3.8677274 0.0625 6.75 C-0.288125 7.4925 -0.63875 8.235 -1 9 C-1.66 9 -2.32 9 -3 9 C-2.4140625 2.84765625 -2.4140625 2.84765625 -2 1 C-1.34 0.67 -0.68 0.34 0 0 Z " fill="#142C58" transform="translate(142,340)"/>
<path d="M0 0 C0.33 0 0.66 0 1 0 C1.42589023 5.53657294 -0.094753 9.89665983 -2 15 C-3.3057939 10.80674634 -2.33775337 8.16189938 -1 4 C-0.65864073 2.66869885 -0.32074044 1.33641852 0 0 Z " fill="#CFD6E0" transform="translate(304,229)"/>
<path d="M0 0 C1 2 1 2 0.1875 5.5 C-1 9 -1 9 -3 11 C-2.88590407 9.54077307 -2.75834456 8.08259402 -2.625 6.625 C-2.55539062 5.81289062 -2.48578125 5.00078125 -2.4140625 4.1640625 C-2 2 -2 2 0 0 Z " fill="#132B58" transform="translate(307,214)"/>
<path d="M0 0 C0.66 0.33 1.32 0.66 2 1 C2.19622241 5.21878192 1.80230168 8.17010894 0 12 C-0.33 12 -0.66 12 -1 12 C-0.67 8.04 -0.34 4.08 0 0 Z " fill="#268EFF" transform="translate(394,192)"/>
<path d="M0 0 C0.33 0 0.66 0 1 0 C1.17835515 4.54805635 0.99785435 7.8794254 -1 12 C-1.33 12 -1.66 12 -2 12 C-1.85962479 10.18706911 -1.71255111 8.3746557 -1.5625 6.5625 C-1.48128906 5.55316406 -1.40007812 4.54382813 -1.31640625 3.50390625 C-1 1 -1 1 0 0 Z " fill="#268EFF" transform="translate(342,390)"/>
<path d="M0 0 C0.33 0 0.66 0 1 0 C0.88601335 1.62580966 0.75844341 3.25067157 0.625 4.875 C0.52058594 6.23238281 0.52058594 6.23238281 0.4140625 7.6171875 C0 10 0 10 -2 12 C-2.17835515 7.45194365 -1.99785435 4.1205746 0 0 Z " fill="#011949" transform="translate(145,327)"/>
<path d="M0 0 C-0.33 2.31 -0.66 4.62 -1 7 C-1.33 5.68 -1.66 4.36 -2 3 C-3.65 3.66 -5.3 4.32 -7 5 C-2.25 0 -2.25 0 0 0 Z " fill="#CDD5DF" transform="translate(313,199)"/>
<path d="M0 0 C0.66 0.33 1.32 0.66 2 1 C-0.25 3.5625 -0.25 3.5625 -3 6 C-4.32 5.67 -5.64 5.34 -7 5 C-4.69 3.35 -2.38 1.7 0 0 Z " fill="#9BCBFE" transform="translate(404,69)"/>
<path d="M0 0 C-1.65 1.32 -3.3 2.64 -5 4 C-5.66 3.67 -6.32 3.34 -7 3 C-7 2.01 -7 1.02 -7 0 C-4.3333581 -1.33332095 -2.83319697 -0.67102033 0 0 Z " fill="#7FBCFE" transform="translate(305,188)"/>
<path d="M0 0 C0.33 0 0.66 0 1 0 C1.33 2.64 1.66 5.28 2 8 C0.68 8.33 -0.64 8.66 -2 9 C-1.41196203 5.97580475 -0.77321882 2.98241547 0 0 Z " fill="#48A0FF" transform="translate(336,177)"/>
<path d="M0 0 C0.33 0 0.66 0 1 0 C0.88637738 1.4800841 0.75877092 2.95910074 0.625 4.4375 C0.52058594 5.67306641 0.52058594 5.67306641 0.4140625 6.93359375 C0.27742188 7.61550781 0.14078125 8.29742187 0 9 C-0.99 9.495 -0.99 9.495 -2 10 C-1.85950482 8.52031676 -1.71245174 7.04125484 -1.5625 5.5625 C-1.48128906 4.73878906 -1.40007812 3.91507813 -1.31640625 3.06640625 C-1 1 -1 1 0 0 Z " fill="#268EFF" transform="translate(408,145)"/>
<path d="M0 0 C0.66 0 1.32 0 2 0 C1.25 6.625 1.25 6.625 -1 10 C-0.67 6.7 -0.34 3.4 0 0 Z " fill="#268EFF" transform="translate(356,336)"/>
<path d="M0 0 C0.66 0 1.32 0 2 0 C2.3367697 4.93928888 2.16130459 5.78492722 -1 10 C-0.67 6.7 -0.34 3.4 0 0 Z " fill="#268EFF" transform="translate(298,320)"/>
<path d="M0 0 C0.66 0.33 1.32 0.66 2 1 C0.25 3.0625 0.25 3.0625 -2 5 C-4.25 4.75 -4.25 4.75 -6 4 C-4.02 2.68 -2.04 1.36 0 0 Z " fill="#16305C" transform="translate(291,214)"/>
<path d="M0 0 C-4.625 4 -4.625 4 -8 4 C-8 3.01 -8 2.02 -8 1 C-5.29120665 -0.35439668 -2.99066732 -0.06501451 0 0 Z " fill="#90C5FE" transform="translate(277,206)"/>
<path d="M0 0 C1.65 0.33 3.3 0.66 5 1 C2.47211993 3.79872437 0.79588866 5.45773019 -3 6 C-2.505 5.566875 -2.01 5.13375 -1.5 4.6875 C0.33218192 3.00259517 0.33218192 3.00259517 0 0 Z " fill="#9CCBFE" transform="translate(292,192)"/>
<path d="M0 0 C0.33 0 0.66 0 1 0 C1.36923077 5.41538462 1.36923077 5.41538462 -0.5 8.375 C-0.995 8.91125 -1.49 9.4475 -2 10 C-1.85950482 8.52031676 -1.71245174 7.04125484 -1.5625 5.5625 C-1.48128906 4.73878906 -1.40007812 3.91507813 -1.31640625 3.06640625 C-1 1 -1 1 0 0 Z " fill="#298FFF" transform="translate(256,174)"/>
<path d="M0 0 C1.50934217 3.01868434 1.17510672 5.67297229 1 9 C0.34 9.99 -0.32 10.98 -1 12 C-2.37520651 8.17998192 -1.74051523 4.92473073 -1 1 C-0.67 0.67 -0.34 0.34 0 0 Z " fill="#4AA1FF" transform="translate(297,323)"/>
<path d="M0 0 C0.66 0 1.32 0 2 0 C1.67 2.31 1.34 4.62 1 7 C0.34 7 -0.32 7 -1 7 C-1.04254356 5.00045254 -1.04080783 2.99958364 -1 1 C-0.67 0.67 -0.34 0.34 0 0 Z " fill="#162D5A" transform="translate(280,312)"/>
<path d="M0 0 C0.66 0.33 1.32 0.66 2 1 C-0.57404971 4.86107457 -2.61020259 4.94319692 -7 6 C-4.74259377 3.66475218 -2.7194239 1.81294927 0 0 Z " fill="#A0ADC0" transform="translate(213,263)"/>
<path d="M0 0 C0 0.99 0 1.98 0 3 C-4.455 4.485 -4.455 4.485 -9 6 C-3.2 0 -3.2 0 0 0 Z " fill="#A4B0C1" transform="translate(272,226)"/>
</svg>
